<svg width="402" height="44" viewBox="0 0 402 44" fill="none" xmlns="http://www.w3.org/2000/svg">
<path d="M10.3274 0.843595L19.3557 28.0909L28.276 0.843595H37.6287L23.086 39.2276H15.6254L0.920578 0.843595H10.3274ZM41.1875 39.2276V0.843595H50.0537V39.2276H41.1875ZM57.3955 39.2276V0.843595H66.2617V17.3866L80.3178 0.843595H90.2652L75.8847 17.9813L91.2384 39.2276H81.1288L70.2623 23.7659L66.2617 27.9287V39.2276H57.3955ZM121.065 31.4427V39.2276H94.088V0.843595H120.578V8.62853H102.954V16.0891H118.092V23.2793H102.954V31.4427H121.065ZM139.069 39.2276V0.843595H147.935V31.4427H166.533V39.2276H139.069ZM181.127 0.843595H189.129L203.131 39.2276H194.048L191.075 30.6318H179.127L176.208 39.2276H167.125L181.127 0.843595ZM189.615 24.5228L185.128 10.9532L180.533 24.5228H189.615ZM238.645 29.3883C238.645 31.0462 238.303 32.4879 237.618 33.7133C236.933 34.9387 235.996 35.9659 234.807 36.7948C233.617 37.5877 232.23 38.2005 230.644 38.6329C229.058 39.0294 227.382 39.2276 225.616 39.2276H206.911V0.843595H228.265C229.599 0.843595 230.806 1.13193 231.887 1.70859C232.969 2.28525 233.888 3.04212 234.645 3.97919C235.401 4.88023 235.978 5.92542 236.375 7.11479C236.807 8.26811 237.023 9.45748 237.023 10.6829C237.023 12.521 236.555 14.251 235.618 15.8728C234.717 17.4947 233.347 18.7201 231.509 19.5491C233.708 20.1978 235.438 21.3511 236.699 23.009C237.996 24.6669 238.645 26.7934 238.645 29.3883ZM229.617 27.6043C229.617 26.4149 229.274 25.4058 228.59 24.5768C227.905 23.7479 227.04 23.3334 225.995 23.3334H215.777V31.713H225.616C226.77 31.713 227.725 31.3346 228.482 30.5777C229.238 29.8208 229.617 28.8297 229.617 27.6043ZM215.777 8.41228V16.3594H224.481C225.454 16.3594 226.319 16.035 227.076 15.3863C227.833 14.7375 228.211 13.7284 228.211 12.3588C228.211 11.0974 227.869 10.1242 227.184 9.43946C226.535 8.75467 225.742 8.41228 224.805 8.41228H215.777ZM266.898 12.0885C266.79 11.9443 266.411 11.674 265.762 11.2776C265.114 10.8811 264.303 10.4666 263.33 10.0341C262.356 9.60164 261.293 9.22321 260.14 8.89884C258.987 8.57446 257.833 8.41228 256.68 8.41228C253.508 8.41228 251.923 9.4755 251.923 11.6019C251.923 12.2507 252.085 12.7913 252.409 13.2238C252.769 13.6563 253.274 14.0527 253.923 14.4132C254.608 14.7375 255.455 15.0439 256.464 15.3322C257.473 15.6205 258.644 15.9449 259.978 16.3053C261.816 16.8099 263.474 17.3686 264.951 17.9813C266.429 18.5579 267.673 19.2968 268.682 20.1978C269.727 21.0628 270.52 22.126 271.06 23.3875C271.637 24.6489 271.925 26.1626 271.925 27.9287C271.925 30.0911 271.511 31.9293 270.682 33.443C269.889 34.9207 268.826 36.1281 267.492 37.0651C266.159 37.9662 264.627 38.6329 262.897 39.0654C261.167 39.4619 259.383 39.6601 257.545 39.6601C256.139 39.6601 254.698 39.552 253.22 39.3358C251.742 39.1195 250.301 38.8132 248.895 38.4167C247.489 37.9842 246.12 37.4796 244.786 36.903C243.489 36.3263 242.281 35.6595 241.164 34.9027L245.057 27.1718C245.201 27.352 245.669 27.6944 246.462 28.199C247.255 28.7036 248.228 29.2081 249.382 29.7127C250.571 30.2173 251.886 30.6678 253.328 31.0643C254.77 31.4607 256.229 31.6589 257.707 31.6589C260.843 31.6589 262.411 30.7039 262.411 28.7937C262.411 28.0728 262.176 27.4782 261.708 27.0096C261.239 26.5411 260.59 26.1266 259.762 25.7662C258.933 25.3697 257.941 25.0093 256.788 24.6849C255.671 24.3606 254.445 24.0002 253.112 23.6037C251.346 23.0631 249.814 22.4864 248.517 21.8737C247.219 21.225 246.138 20.4861 245.273 19.6572C244.444 18.8282 243.813 17.8731 243.381 16.7919C242.984 15.7107 242.786 14.4492 242.786 13.0076C242.786 10.9892 243.164 9.20519 243.921 7.65541C244.678 6.10563 245.705 4.80814 247.003 3.76294C248.3 2.6817 249.796 1.87077 251.49 1.33015C253.22 0.789533 255.04 0.519224 256.95 0.519224C258.284 0.519224 259.599 0.645368 260.897 0.897656C262.194 1.14995 263.438 1.47432 264.627 1.87077C265.816 2.26723 266.916 2.71775 267.925 3.22233C268.97 3.7269 269.925 4.23148 270.79 4.73606L266.898 12.0885Z" fill="#222B49"/>
<path d="M291.078 16.588C290.192 16.588 289.418 16.4035 288.754 16.0346C288.09 15.6509 287.566 15.1196 287.182 14.4407V16.3666H284.105V0.20696H287.647V6.64868C288.03 5.98459 288.54 5.46807 289.174 5.09913C289.824 4.71543 290.584 4.52358 291.454 4.52358C292.192 4.52358 292.871 4.68591 293.491 5.01058C294.111 5.32049 294.642 5.74846 295.085 6.2945C295.527 6.84053 295.874 7.48987 296.125 8.24251C296.376 8.98039 296.501 9.76993 296.501 10.6111C296.501 11.4523 296.361 12.2418 296.081 12.9797C295.815 13.7028 295.439 14.3374 294.952 14.8835C294.465 15.4147 293.889 15.8353 293.225 16.1452C292.561 16.4404 291.845 16.588 291.078 16.588ZM290.082 13.5995C290.495 13.5995 290.871 13.5258 291.211 13.3782C291.55 13.2158 291.838 13.0019 292.074 12.7362C292.325 12.4706 292.517 12.1607 292.65 11.8065C292.797 11.4375 292.871 11.0391 292.871 10.6111C292.871 10.1979 292.805 9.80682 292.672 9.43788C292.539 9.05418 292.354 8.72213 292.118 8.44174C291.897 8.16134 291.624 7.93998 291.299 7.77764C290.975 7.61531 290.628 7.53414 290.259 7.53414C289.698 7.53414 289.182 7.72599 288.709 8.10969C288.252 8.49339 287.898 8.97302 287.647 9.54856V11.9836C287.883 12.4853 288.222 12.8838 288.665 13.179C289.123 13.4593 289.595 13.5995 290.082 13.5995ZM301.784 16.588C300.589 16.588 299.681 16.219 299.061 15.4811C298.456 14.7285 298.154 13.6291 298.154 12.1828V4.74494H301.696V11.408C301.696 12.1164 301.836 12.6624 302.116 13.0461C302.397 13.4151 302.795 13.5995 303.312 13.5995C303.784 13.5995 304.241 13.4741 304.684 13.2232C305.127 12.9723 305.518 12.537 305.857 11.9172V4.74494H309.399V12.382C309.399 12.7362 309.451 12.9871 309.554 13.1347C309.672 13.2675 309.871 13.3487 310.152 13.3782V16.3666C309.812 16.4404 309.525 16.4847 309.289 16.4994C309.052 16.5289 308.838 16.5437 308.647 16.5437C307.377 16.5437 306.654 16.0493 306.477 15.0606L306.411 14.3522C305.879 15.1196 305.215 15.6878 304.418 16.0567C303.636 16.4109 302.758 16.588 301.784 16.588ZM312.143 16.3666V4.74494H315.685V16.3666H312.143ZM312.143 3.41675V0.20696H315.685V3.41675H312.143ZM318.065 0.20696H321.607V12.2271C321.607 13.1125 321.983 13.5553 322.736 13.5553C322.913 13.5553 323.105 13.5331 323.312 13.4889C323.533 13.4298 323.732 13.3487 323.909 13.2454L324.374 15.9017C323.931 16.1083 323.422 16.2707 322.847 16.3887C322.271 16.5068 321.733 16.5658 321.231 16.5658C320.213 16.5658 319.43 16.3002 318.884 15.7689C318.338 15.2376 318.065 14.4702 318.065 13.4667V0.20696ZM330.35 16.588C329.553 16.588 328.815 16.4404 328.137 16.1452C327.472 15.8353 326.897 15.4074 326.41 14.8613C325.923 14.3153 325.539 13.6807 325.259 12.9576C324.993 12.2197 324.86 11.4154 324.86 10.5447C324.86 9.70352 324.986 8.91398 325.237 8.1761C325.488 7.43822 325.842 6.80364 326.299 6.27236C326.757 5.72633 327.295 5.29836 327.915 4.98845C328.55 4.67853 329.243 4.52358 329.996 4.52358C330.808 4.52358 331.538 4.71543 332.188 5.09913C332.852 5.48283 333.361 5.99935 333.715 6.64868V0.20696H337.257V12.382C337.257 12.7362 337.308 12.9871 337.412 13.1347C337.53 13.2675 337.729 13.3487 338.009 13.3782V16.3666C337.685 16.4404 337.404 16.4847 337.168 16.4994C336.932 16.5289 336.711 16.5437 336.504 16.5437C335.884 16.5437 335.383 16.4183 334.999 16.1674C334.615 15.9017 334.394 15.5254 334.335 15.0384L334.268 14.4407C333.855 15.1639 333.294 15.7025 332.586 16.0567C331.892 16.4109 331.147 16.588 330.35 16.588ZM331.302 13.5995C331.789 13.5995 332.254 13.4593 332.697 13.179C333.154 12.8838 333.501 12.4853 333.737 11.9836V9.54856C333.516 8.95826 333.154 8.47863 332.652 8.10969C332.165 7.72599 331.656 7.53414 331.125 7.53414C330.741 7.53414 330.387 7.62269 330.062 7.79978C329.753 7.96211 329.479 8.18348 329.243 8.46388C329.007 8.74427 328.823 9.06894 328.69 9.43788C328.572 9.80682 328.513 10.1979 328.513 10.6111C328.513 11.0391 328.579 11.4375 328.712 11.8065C328.86 12.1754 329.052 12.4927 329.288 12.7584C329.539 13.024 329.834 13.2306 330.173 13.3782C330.527 13.5258 330.904 13.5995 331.302 13.5995ZM288.687 38.588C287.698 38.588 286.724 38.433 285.765 38.1231C284.806 37.7984 283.994 37.3336 283.33 36.7285L284.592 34.5591C285.3 35.0461 285.987 35.4225 286.651 35.6881C287.33 35.9537 287.979 36.0865 288.599 36.0865C289.056 36.0865 289.41 36.0054 289.661 35.843C289.912 35.6807 290.038 35.4446 290.038 35.1347C290.038 34.8248 289.875 34.5813 289.551 34.4042C289.241 34.2123 288.687 34.0131 287.89 33.8065C287.108 33.5851 286.444 33.3711 285.898 33.1645C285.367 32.9579 284.931 32.7292 284.592 32.4783C284.253 32.2274 284.009 31.9396 283.861 31.615C283.714 31.2903 283.64 30.9066 283.64 30.4639C283.64 29.8736 283.758 29.3349 283.994 28.8479C284.23 28.3609 284.555 27.9477 284.968 27.6083C285.381 27.2688 285.869 27.0032 286.429 26.8114C287.005 26.6195 287.625 26.5236 288.289 26.5236C289.159 26.5236 289.971 26.6416 290.724 26.8778C291.491 27.1139 292.229 27.5419 292.937 28.1617L291.565 30.2868C290.901 29.8293 290.311 29.4972 289.794 29.2906C289.278 29.084 288.776 28.9807 288.289 28.9807C287.905 28.9807 287.58 29.0619 287.315 29.2242C287.049 29.3718 286.916 29.6153 286.916 29.9547C286.916 30.2794 287.056 30.5229 287.337 30.6852C287.632 30.8476 288.171 31.0247 288.953 31.2165C289.779 31.4379 290.473 31.6592 291.034 31.8806C291.609 32.102 292.074 32.3529 292.428 32.6333C292.782 32.8989 293.041 33.2088 293.203 33.563C293.365 33.9172 293.447 34.3378 293.447 34.8248C293.447 35.9759 293.019 36.8908 292.163 37.5697C291.307 38.2485 290.148 38.588 288.687 38.588ZM300.686 38.588C299.697 38.588 298.811 38.4256 298.029 38.101C297.262 37.7763 296.613 37.3409 296.081 36.7949C295.55 36.2341 295.144 35.5922 294.864 34.869C294.598 34.1312 294.465 33.3638 294.465 32.5668C294.465 31.7699 294.598 31.0099 294.864 30.2868C295.144 29.5489 295.55 28.9069 296.081 28.3609C296.613 27.8001 297.262 27.3574 298.029 27.0327C298.811 26.6933 299.697 26.5236 300.686 26.5236C301.674 26.5236 302.553 26.6933 303.32 27.0327C304.087 27.3574 304.737 27.8001 305.268 28.3609C305.799 28.9069 306.205 29.5489 306.485 30.2868C306.766 31.0099 306.906 31.7699 306.906 32.5668C306.906 33.3638 306.766 34.1312 306.485 34.869C306.22 35.5922 305.821 36.2341 305.29 36.7949C304.759 37.3409 304.102 37.7763 303.32 38.101C302.553 38.4256 301.674 38.588 300.686 38.588ZM298.096 32.5668C298.096 33.4818 298.339 34.2197 298.826 34.7805C299.313 35.3265 299.933 35.5995 300.686 35.5995C301.055 35.5995 301.394 35.5258 301.704 35.3782C302.014 35.2306 302.28 35.024 302.501 34.7584C302.737 34.4927 302.922 34.1754 303.054 33.8065C303.187 33.4228 303.254 33.0096 303.254 32.5668C303.254 31.6519 303.01 30.9214 302.523 30.3753C302.036 29.8145 301.424 29.5341 300.686 29.5341C300.317 29.5341 299.97 29.6079 299.645 29.7555C299.335 29.9031 299.062 30.1097 298.826 30.3753C298.605 30.641 298.428 30.9656 298.295 31.3493C298.162 31.7183 298.096 32.1241 298.096 32.5668ZM327.036 38.3666H323.494V31.8363C323.494 31.0689 323.354 30.5155 323.074 30.1761C322.793 29.8219 322.432 29.6448 321.989 29.6448C321.753 29.6448 321.509 29.6965 321.258 29.7998C321.022 29.9031 320.801 30.0507 320.594 30.2425C320.388 30.4196 320.196 30.6336 320.019 30.8845C319.856 31.1353 319.724 31.4084 319.62 31.7035V38.3666H316.078V31.8363C316.078 31.0689 315.938 30.5155 315.658 30.1761C315.377 29.8219 315.016 29.6448 314.573 29.6448C314.101 29.6448 313.636 29.8367 313.178 30.2204C312.736 30.5893 312.411 31.0837 312.204 31.7035V38.3666H308.663V26.7449H311.85V28.693C312.278 27.9846 312.854 27.4459 313.577 27.077C314.315 26.708 315.171 26.5236 316.145 26.5236C316.632 26.5236 317.052 26.5826 317.407 26.7007C317.776 26.8187 318.093 26.9811 318.358 27.1877C318.624 27.3943 318.838 27.6378 319 27.9182C319.163 28.1838 319.281 28.4716 319.355 28.7815C319.797 28.0584 320.38 27.505 321.103 27.1213C321.826 26.7228 322.653 26.5236 323.583 26.5236C324.321 26.5236 324.911 26.6638 325.354 26.9442C325.811 27.2098 326.165 27.564 326.416 28.0067C326.667 28.4347 326.829 28.9069 326.903 29.4235C326.992 29.94 327.036 30.4417 327.036 30.9287V38.3666ZM334.907 38.588C333.933 38.588 333.055 38.433 332.273 38.1231C331.505 37.7984 330.849 37.3631 330.303 36.8171C329.771 36.271 329.366 35.6438 329.085 34.9354C328.805 34.2123 328.665 33.4597 328.665 32.6775C328.665 31.8363 328.805 31.0468 329.085 30.3089C329.366 29.5563 329.771 28.8996 330.303 28.3388C330.834 27.778 331.483 27.3352 332.251 27.0106C333.033 26.6859 333.918 26.5236 334.907 26.5236C335.896 26.5236 336.774 26.6859 337.541 27.0106C338.309 27.3352 338.958 27.778 339.489 28.3388C340.021 28.8848 340.419 29.5194 340.685 30.2425C340.965 30.9656 341.105 31.7257 341.105 32.5226C341.105 32.7292 341.098 32.9358 341.083 33.1424C341.068 33.3342 341.046 33.504 341.017 33.6515H332.428C332.487 34.4337 332.767 35.0314 333.269 35.4446C333.785 35.843 334.368 36.0423 335.018 36.0423C335.534 36.0423 336.029 35.9168 336.501 35.666C336.988 35.4151 337.313 35.0756 337.475 34.6477L340.485 35.4889C340.028 36.4038 339.32 37.1491 338.36 37.7246C337.401 38.3002 336.25 38.588 334.907 38.588ZM337.364 31.46C337.29 30.7221 337.025 30.1392 336.567 29.7112C336.11 29.2833 335.542 29.0693 334.863 29.0693C334.169 29.0693 333.594 29.2906 333.136 29.7334C332.693 30.1613 332.435 30.7369 332.361 31.46H337.364ZM350.15 37.7468C349.663 37.9534 349.103 38.1452 348.468 38.3223C347.848 38.4994 347.221 38.588 346.586 38.588C346.144 38.588 345.723 38.5289 345.325 38.4109C344.941 38.3076 344.602 38.1379 344.306 37.9017C344.011 37.6509 343.775 37.3262 343.598 36.9277C343.436 36.5293 343.355 36.0497 343.355 35.4889V29.4235H341.871V26.7449H343.355V23.0481H346.896V26.7449H349.265V29.4235H346.896V34.2714C346.896 34.6551 346.992 34.9354 347.184 35.1125C347.376 35.2749 347.619 35.356 347.915 35.356C348.18 35.356 348.453 35.3118 348.734 35.2232C349.014 35.1347 349.258 35.0388 349.464 34.9354L350.15 37.7468ZM362.732 38.3666H359.19V31.8363C359.19 31.0837 359.042 30.5303 358.747 30.1761C358.452 29.8219 358.046 29.6448 357.529 29.6448C357.323 29.6448 357.094 29.6965 356.843 29.7998C356.607 29.8883 356.371 30.0285 356.135 30.2204C355.914 30.3975 355.707 30.6115 355.515 30.8623C355.323 31.1132 355.176 31.3936 355.072 31.7035V38.3666H351.53V22.207H355.072V28.693C355.5 27.9993 356.061 27.4681 356.755 27.0991C357.463 26.7154 358.238 26.5236 359.079 26.5236C359.861 26.5236 360.488 26.6638 360.961 26.9442C361.448 27.2098 361.817 27.5566 362.067 27.9846C362.333 28.3978 362.51 28.87 362.599 29.4013C362.687 29.9178 362.732 30.427 362.732 30.9287V38.3666ZM365.085 38.3666V26.7449H368.627V38.3666H365.085ZM365.085 25.4168V22.207H368.627V25.4168H365.085ZM382.252 38.3666H378.71V31.8363C378.71 31.0689 378.563 30.5155 378.268 30.1761C377.987 29.8219 377.611 29.6448 377.139 29.6448C376.888 29.6448 376.637 29.6965 376.386 29.7998C376.135 29.9031 375.892 30.0507 375.656 30.2425C375.42 30.4196 375.206 30.6336 375.014 30.8845C374.837 31.1353 374.696 31.4084 374.593 31.7035V38.3666H371.051V26.7449H374.239V28.693C374.667 27.9993 375.272 27.4681 376.054 27.0991C376.836 26.7154 377.736 26.5236 378.755 26.5236C379.507 26.5236 380.112 26.6638 380.57 26.9442C381.027 27.2098 381.382 27.564 381.633 28.0067C381.883 28.4347 382.046 28.9069 382.12 29.4235C382.208 29.94 382.252 30.4417 382.252 30.9287V38.3666ZM389.121 38.4109C388.354 38.4109 387.653 38.2559 387.018 37.946C386.384 37.6361 385.838 37.2155 385.38 36.6842C384.938 36.153 384.591 35.5331 384.34 34.8248C384.089 34.1164 383.964 33.3564 383.964 32.5447C383.964 31.6888 384.096 30.8992 384.362 30.1761C384.628 29.4382 384.997 28.8036 385.469 28.2724C385.941 27.7263 386.509 27.2984 387.173 26.9884C387.837 26.6785 388.568 26.5236 389.365 26.5236C390.25 26.5236 391.018 26.7154 391.667 27.0991C392.331 27.4681 392.862 27.9846 393.261 28.6487V26.7449H396.338V37.5697C396.338 38.4552 396.168 39.2521 395.829 39.9604C395.504 40.6688 395.047 41.2665 394.456 41.7535C393.866 42.2553 393.158 42.639 392.331 42.9046C391.505 43.1702 390.597 43.303 389.608 43.303C388.354 43.303 387.284 43.1038 386.399 42.7054C385.513 42.3069 384.738 41.7314 384.074 40.9787L385.978 39.0528C386.406 39.5398 386.937 39.9235 387.572 40.2039C388.206 40.4991 388.885 40.6467 389.608 40.6467C390.036 40.6467 390.442 40.5876 390.826 40.4696C391.21 40.3515 391.549 40.167 391.844 39.9162C392.139 39.68 392.368 39.3628 392.53 38.9643C392.708 38.5806 392.796 38.1157 392.796 37.5697V36.4407C392.442 37.0901 391.933 37.5845 391.269 37.9239C390.605 38.2485 389.889 38.4109 389.121 38.4109ZM390.339 35.5995C390.885 35.5995 391.372 35.452 391.8 35.1568C392.228 34.8469 392.56 34.4558 392.796 33.9836V31.5486C392.56 30.9287 392.198 30.4417 391.711 30.0876C391.224 29.7186 390.708 29.5341 390.162 29.5341C389.778 29.5341 389.424 29.6227 389.099 29.7998C388.789 29.9621 388.516 30.1909 388.28 30.486C388.059 30.7664 387.882 31.0985 387.749 31.4822C387.631 31.8511 387.572 32.2348 387.572 32.6333C387.572 33.0612 387.638 33.4597 387.771 33.8286C387.919 34.1828 388.118 34.4927 388.369 34.7584C388.62 35.024 388.907 35.2306 389.232 35.3782C389.572 35.5258 389.94 35.5995 390.339 35.5995ZM398.743 38.3666V34.7584H401.643V38.3666H398.743Z" fill="#4C6EA5"/>
</svg>
